<?xml version="1.0" encoding="UTF-8"?>
<svg id="Layer_1" xmlns="http://www.w3.org/2000/svg" version="1.1" viewBox="0 0 1080 787.19">
  <defs>
    <style>
      .st0 { fill: #ff4500; }
      .st1 { fill: #fff; }
    </style>
  </defs>
  <g>
    <path class="st1" d="M469.83,284.93c-11.23,0-20.9-4.06-29.01-12.17-8.12-8.11-12.18-17.78-12.18-29.01s4.02-20.81,12.05-28.75c8.03-7.94,17.74-11.92,29.14-11.92s21.8,3.89,29.66,11.66c7.86,7.77,11.79,17.44,11.79,29.01s-4.01,21.11-12.04,29.14c-8.03,8.03-17.83,12.05-29.4,12.05ZM434.34,577.9v-264.73h71.23v264.73h-71.23Z"/>
    <path class="st1" d="M625.25,584.12c-29.01,0-51.98-7.77-68.9-23.31-16.93-15.54-25.39-36.52-25.39-62.94,0-17.27,4.44-32.38,13.34-45.33,8.89-12.95,21.28-23.01,37.17-30.18,15.89-7.16,34.36-10.75,55.43-10.75,11.22,0,22.15.95,32.77,2.85,10.62,1.9,19.64,4.58,27.07,8.03v-15.8c0-13.12-4.01-23.09-12.04-29.92-8.03-6.82-19.65-10.23-34.84-10.23-12.95,0-26.29,2.33-40.02,7-13.73,4.66-27.85,11.75-42.35,21.24l-21.76-55.17c15.71-10.53,33.2-18.61,52.45-24.22,19.25-5.61,38.81-8.42,58.67-8.42,36.78,0,64.33,8.55,82.63,25.65,18.3,17.1,27.46,42.66,27.46,76.68v168.63h-70.2v-20.2c-8.46,8.63-18.78,15.2-30.95,19.69-12.17,4.49-25.69,6.73-40.54,6.73ZM642.86,524.54c10.19,0,19.9-1.81,29.14-5.44,9.24-3.63,17.49-8.89,24.74-15.8v-26.42c-6.91-3.11-14.51-5.44-22.79-7-8.29-1.55-16.75-2.33-25.38-2.33-15.03,0-26.81,2.63-35.36,7.9-8.55,5.27-12.82,12.65-12.82,22.15,0,8.46,3.71,15.07,11.14,19.82,7.42,4.75,17.87,7.12,31.34,7.12Z"/>
    <path class="st1" d="M924.68,584.12c-23.14,0-44.21-4.15-63.2-12.43-19-8.29-35.27-20.12-48.83-35.49-13.56-15.37-23.87-33.68-30.95-54.92l66.83-25.13c7.94,16.93,18.74,30.78,32.38,41.57,13.64,10.8,28.84,16.19,45.59,16.19s31.08-3.45,41.44-10.36c10.36-6.91,15.54-16.92,15.54-30.05,0-8.98-3.02-16.41-9.07-22.28-6.05-5.87-14.33-11.01-24.87-15.41-10.53-4.4-22.63-8.85-36.27-13.34-13.47-4.49-27.11-9.46-40.93-14.89-13.82-5.44-26.51-12.22-38.08-20.34-11.57-8.11-20.85-18.43-27.85-30.95-6.99-12.52-10.49-28.02-10.49-46.5s4.88-35.1,14.64-50.38c9.75-15.28,23.92-27.5,42.48-36.65,18.56-9.15,41.06-13.73,67.48-13.73,21.76,0,41.1,3.85,58.02,11.53,16.92,7.69,30.91,18.09,41.96,31.21,11.05,13.13,18.82,27.89,23.31,44.3l-66.31,22.02c-5.01-11.05-12.22-20.29-21.63-27.72-9.42-7.42-22.5-11.14-39.24-11.14-14.85,0-26.29,2.72-34.32,8.16-8.03,5.44-12.04,13.34-12.04,23.7,0,6.74,2.72,12.48,8.16,17.23,5.44,4.75,12.95,9.03,22.54,12.82,9.58,3.8,20.59,7.86,33.03,12.17,14.85,5.01,29.62,10.54,44.3,16.58,14.67,6.05,28.01,13.47,40.02,22.27,12,8.81,21.59,19.78,28.75,32.9,7.16,13.13,10.75,29.36,10.75,48.7,0,23.31-5.87,43.17-17.61,59.58-11.75,16.41-27.68,28.97-47.79,37.69-20.12,8.72-42.7,13.08-67.74,13.08Z"/>
  </g>
  <path class="st0" d="M31.42,578.38h16.83s305.54,0,305.54,0c16.07,0,29.1-13.03,29.1-29.1v-276.44c0-16.07-13.03-29.1-29.1-29.1H77.35c-16.07,0-29.1,13.03-29.1,29.1v243.03s-23.36,46.75-23.36,46.75c-5.81,5.81-1.7,15.76,6.53,15.76ZM317.52,390.84l-44.42,54.11-9.69,2.27c-4.55,0-10.81-.94-18.79-2.84-7.97-1.9-16.22-4.08-24.77-6.56-8.54-2.46-16.51-4.63-23.91-6.55-7.4-1.89-13.38-2.85-17.94-2.85-3.42,0-7.22,1.53-11.39,4.57-4.18,3.04-8.17,6.36-11.97,9.96-3.79,3.61-8.17,8.45-13.09,14.52h-6.27s-21.64-20.5-21.64-20.5v-5.7l44.42-54.1,9.12-2.28c4.92,0,11.39.95,19.36,2.85,7.97,1.9,16.23,4.08,24.77,6.55,8.54,2.48,16.6,4.66,24.2,6.55,7.59,1.91,13.29,2.85,17.09,2.85,3.41,0,7.21-1.51,11.39-4.55,4.17-3.04,8.16-6.35,11.96-9.96,3.79-3.6,8.34-8.45,13.66-14.53h5.7l22.21,20.51v5.69Z"/>
</svg>
